HIERARCHY
ROOT Hips
{
	OFFSET 0.000000 0.000000 0.000000
	CHANNELS 6 Xposition Yposition Zposition Xrotation Yrotation Zrotation
	JOINT LeftUpLeg_virtual
	{
		OFFSET 0.000000 0.000000 0.000000
		CHANNELS 3 Xrotation Yrotation Zrotation
		JOINT LeftUpLeg
		{
			OFFSET 13.026900 -6.336304 -1.092800
			CHANNELS 3 Xrotation Yrotation Zrotation
			JOINT LeftLeg
			{
				OFFSET 0.524474 -46.096886 9.782700
				CHANNELS 3 Xrotation Yrotation Zrotation
				JOINT LeftFoot
				{
					OFFSET -0.524474 -53.427422 -12.948200
					CHANNELS 3 Xrotation Yrotation Zrotation
					JOINT LeftToeBase
					{
						OFFSET 0.192200 -14.009700 16.364100
						CHANNELS 3 Xrotation Yrotation Zrotation
						JOINT LeftToe_End
						{
							OFFSET -1.784700 -0.561700 9.474800
							CHANNELS 3 Xrotation Yrotation Zrotation
							End Site
							{
								OFFSET 0 0 0
							}
						}
					}
				}
			}
		}
	}
	JOINT RightUpLeg_virtual
	{
		OFFSET 0.000000 0.000000 0.000000
		CHANNELS 3 Xrotation Yrotation Zrotation
		JOINT RightUpLeg
		{
			OFFSET -12.883000 -6.336304 -1.092800
			CHANNELS 3 Xrotation Yrotation Zrotation
			JOINT RightLeg
			{
				OFFSET -0.524587 -46.096825 9.782800
				CHANNELS 3 Xrotation Yrotation Zrotation
				JOINT RightFoot
				{
					OFFSET 0.524587 -53.427383 -12.948300
					CHANNELS 3 Xrotation Yrotation Zrotation
					JOINT RightToeBase
					{
						OFFSET -0.192200 -14.009700 16.364100
						CHANNELS 3 Xrotation Yrotation Zrotation
						JOINT RightToe_End
						{
							OFFSET 1.784700 -0.561700 9.474800
							CHANNELS 3 Xrotation Yrotation Zrotation
							End Site
							{
								OFFSET 0 0 0
							}
						}
					}
				}
			}
		}
	}
	JOINT Spine_virtual
	{
		OFFSET 0.000000 0.000000 0.000000
		CHANNELS 3 Xrotation Yrotation Zrotation
		JOINT Spine
		{
			OFFSET 0.072000 7.257294 -0.789700
			CHANNELS 3 Xrotation Yrotation Zrotation
			JOINT Spine1
			{
				OFFSET 0.000000 12.508769 -0.658067
				CHANNELS 3 Xrotation Yrotation Zrotation
				JOINT Spine1_split
				{
					OFFSET 0.000000 12.508769 -0.658067
					CHANNELS 3 Xrotation Yrotation Zrotation
					JOINT Spine2
					{
						OFFSET 0.000000 12.508769 -0.658067
						CHANNELS 3 Xrotation Yrotation Zrotation
						JOINT Neck_virtual
						{
							OFFSET 0.000000 0.000000 0.000000
							CHANNELS 3 Xrotation Yrotation Zrotation
							JOINT Neck
							{
								OFFSET 0.000000 14.033295 7.520400
								CHANNELS 3 Xrotation Yrotation Zrotation
								JOINT Head
								{
									OFFSET 0.000000 8.198502 5.703100
									CHANNELS 3 Xrotation Yrotation Zrotation
									JOINT HeadTop_End
									{
										OFFSET 0.000000 17.760803 13.332701
										CHANNELS 3 Xrotation Yrotation Zrotation
										End Site
										{
											OFFSET 0 0 0
										}
									}
								}
							}
						}
						JOINT LeftShoulder_virtual
						{
							OFFSET 0.000000 0.000000 0.000000
							CHANNELS 3 Xrotation Yrotation Zrotation
							JOINT LeftShoulder
							{
								OFFSET 6.292450 5.785301 -0.669000
								CHANNELS 3 Xrotation Yrotation Zrotation
								JOINT LeftShoulder_split
								{
									OFFSET 6.292450 5.785301 -0.669000
									CHANNELS 3 Xrotation Yrotation Zrotation
									JOINT LeftArm
									{
										OFFSET 13.907140 -6.093903 1.965100
										CHANNELS 3 Xrotation Yrotation Zrotation
										JOINT LeftForeArm
										{
											OFFSET 34.140198 0.000000 0.000000
											CHANNELS 3 Xrotation Yrotation Zrotation
											JOINT LeftHand
											{
												OFFSET 40.960209 0.000000 0.000000
												CHANNELS 3 Xrotation Yrotation Zrotation
												End Site
												{
													OFFSET 0 0 0
												}
											}
										}
									}
								}
							}
						}
						JOINT RightShoulder_virtual
						{
							OFFSET 0.000000 0.000000 0.000000
							CHANNELS 3 Xrotation Yrotation Zrotation
							JOINT RightShoulder
							{
								OFFSET -6.292450 5.785301 -0.669000
								CHANNELS 3 Xrotation Yrotation Zrotation
								JOINT RightShoulder_split
								{
									OFFSET -6.292450 5.785301 -0.669000
									CHANNELS 3 Xrotation Yrotation Zrotation
									JOINT RightArm
									{
										OFFSET -13.907140 -6.093903 1.965100
										CHANNELS 3 Xrotation Yrotation Zrotation
										JOINT RightForeArm
										{
											OFFSET -34.140198 0.000000 0.000000
											CHANNELS 3 Xrotation Yrotation Zrotation
											JOINT RightHand
											{
												OFFSET -40.960209 0.000000 0.000000
												CHANNELS 3 Xrotation Yrotation Zrotation
												End Site
												{
													OFFSET 0 0 0
												}
											}
										}
									}
								}
							}
						}
					}
				}
			}
		}
	}
}
MOTION
Frames: 6
Frame Time: 0.03333333
127.559586 105.495483 239.303543 0.000000 0.000000 0.000000 -102.419254 -72.593170 177.004038 -66.152192 3.701482 37.049818 90.770584 -7.942078 -11.166345 21.540103 -8.378880 -11.360357 -0.340918 -0.000016 0.000002 0.000000 0.000000 0.000000 -102.419254 -72.593170 177.004038 -57.730180 18.610220 -55.345737 64.922000 4.907670 -1.142275 2.838401 1.155367 18.129627 8.673463 0.000009 -0.000014 0.000000 0.000000 0.000000 -102.419254 -72.593170 177.004038 11.360657 1.920823 4.818821 2.771612 9.957179 10.412059 0.000000 0.000000 0.000000 0.000000 0.000000 0.000000 -0.882310 2.661906 7.798888 19.891613 6.141129 11.410930 15.465591 35.529258 -18.333560 0.000000 0.000000 0.000000 -0.882310 2.661906 7.798888 -0.098467 -5.977425 0.627781 0.000000 0.000000 0.000000 9.798804 -4.593804 -1.481030 0.000003 -29.759585 -0.000002 0.000000 0.000000 0.000000 -0.882310 2.661906 7.798888 0.821611 0.232460 16.066171 0.000000 0.000000 0.000000 -41.494260 7.833437 12.026881 -0.000012 18.396534 0.000001 0.000000 0.000000 0.000000 
134.747253 97.875305 250.688217 0.000000 0.000000 0.000000 -100.710477 -66.162417 175.890936 -64.970255 6.250633 38.829431 91.553966 -7.525823 -11.157797 18.514539 -10.284444 -11.820105 0.669951 -0.000008 0.000010 0.000000 0.000000 0.000000 -100.710477 -66.162417 175.890936 -60.729391 18.521292 -50.236048 58.846000 3.673506 -2.432098 7.690725 2.031835 20.777847 8.592767 -0.000007 0.000002 0.000000 0.000000 0.000000 -100.710477 -66.162417 175.890936 11.518034 1.879689 3.310549 4.854285 11.245299 9.491961 0.000000 0.000000 0.000000 0.000000 0.000000 0.000000 -0.264520 4.650246 6.859569 17.054952 5.940626 9.977808 17.218033 33.848123 -18.256826 0.000000 0.000000 0.000000 -0.264520 4.650246 6.859569 0.094781 -6.199211 -0.123044 0.000000 0.000000 0.000000 9.665276 -8.508373 -0.913034 0.000011 -16.045863 0.000009 0.000000 0.000000 0.000000 -0.264520 4.650246 6.859569 0.702722 0.170120 17.086866 0.000000 0.000000 0.000000 -42.474351 9.627233 15.642585 0.000007 21.324552 0.000007 0.000000 0.000000 0.000000 
142.152954 88.353851 261.343140 0.000000 0.000000 0.000000 -98.946813 -65.829527 174.245776 -65.203199 5.584965 34.808215 92.899589 -6.886166 -10.040317 17.252576 -8.792463 -10.405596 0.402789 -0.000010 0.000004 0.000000 0.000000 0.000000 -98.946813 -65.829527 174.245776 -61.203679 15.754895 -50.323140 52.357160 2.695262 -3.575330 13.816079 3.870816 24.370516 7.955831 -0.000009 -0.000006 0.000000 0.000000 0.000000 -98.946813 -65.829527 174.245776 11.718828 1.631049 3.120258 5.957484 11.339477 9.012858 0.000000 0.000000 0.000000 0.000000 0.000000 0.000000 0.073768 4.191040 6.295747 13.799715 5.635502 8.568018 19.962049 31.780699 -18.252607 0.000000 0.000000 0.000000 0.073768 4.191040 6.295747 0.268089 -6.237658 -0.973497 0.000000 0.000000 0.000000 7.893501 -4.110883 1.992697 -0.000008 -21.678781 -0.000008 0.000000 0.000000 0.000000 0.073768 4.191040 6.295747 0.787627 0.240694 18.556509 0.000000 0.000000 0.000000 -42.487919 7.719440 18.634658 0.000006 29.131283 -0.000000 0.000000 0.000000 0.000000 
150.731003 75.667389 274.039490 0.000000 0.000000 0.000000 -100.159342 -63.082179 169.110088 -66.014468 3.872291 29.251409 93.022682 -3.750507 -8.116544 18.347719 -7.453727 -10.524850 0.467836 0.000005 -0.000023 0.000000 0.000000 0.000000 -100.159342 -63.082179 169.110088 -65.817342 13.833758 -47.136573 45.241670 2.176024 -5.861542 21.476739 7.674754 26.073557 2.668261 -0.000010 0.000005 0.000000 0.000000 0.000000 -100.159342 -63.082179 169.110088 11.985944 1.472352 4.190616 6.471730 11.084026 8.784404 0.000000 0.000000 0.000000 0.000000 0.000000 0.000000 0.445382 2.770592 5.891453 11.640452 5.195614 7.192118 19.687682 29.472789 -17.527317 0.000000 0.000000 0.000000 0.445382 2.770592 5.891453 0.150613 -6.043545 -3.147675 0.000000 0.000000 0.000000 4.885611 7.041730 4.864255 0.000004 -28.737054 0.000004 0.000000 0.000000 0.000000 0.445382 2.770592 5.891453 0.910771 0.309283 19.874520 0.000000 0.000000 0.000000 -41.661145 4.331575 22.138660 0.000009 40.042872 -0.000006 0.000000 0.000000 0.000000 
162.624542 57.281120 292.606598 0.000000 0.000000 0.000000 -103.808159 -48.424149 163.830010 -68.976441 5.261540 22.841210 84.937043 2.398740 -5.346477 24.854048 -2.580560 -16.672686 1.252068 -0.000004 0.000004 0.000000 0.000000 0.000000 -103.808159 -48.424149 163.830010 -80.419057 15.472170 -31.341153 38.091258 -0.195366 -6.416405 29.597795 7.334230 22.476851 0.258286 -0.000005 0.000010 0.000000 0.000000 0.000000 -103.808159 -48.424149 163.830010 12.317007 2.121888 5.049599 6.776501 10.711445 8.774126 0.000000 0.000000 0.000000 0.000000 0.000000 0.000000 1.101988 1.953566 6.037227 11.020231 4.591013 5.860870 17.139335 26.777897 -16.307133 0.000000 0.000000 0.000000 1.101988 1.953566 6.037227 -0.402344 -5.311639 -7.757069 0.000000 0.000000 0.000000 -1.431231 31.188481 3.323701 0.000001 -60.418317 0.000007 0.000000 0.000000 0.000000 1.101988 1.953566 6.037227 0.867110 0.505540 22.720189 0.000000 0.000000 0.000000 -41.589309 -1.043964 23.666670 0.000007 53.515154 0.000001 0.000000 0.000000 0.000000 
175.181274 37.352875 312.821259 0.000000 0.000000 0.000000 -104.079160 -28.158706 163.155625 -70.597245 4.257536 24.070287 73.163429 9.116714 -4.470323 34.374040 1.027034 -22.929737 -1.095748 0.000013 0.000012 0.000000 0.000000 0.000000 -104.079160 -28.158706 163.155625 -95.856015 12.314057 -10.471535 35.901913 -2.707090 -5.156088 31.891188 3.708724 12.462933 -0.620253 -0.000006 -0.000004 0.000000 0.000000 0.000000 -104.079160 -28.158706 163.155625 12.661053 2.954703 5.085126 6.942541 10.336702 9.288595 0.000000 0.000000 0.000000 0.000000 0.000000 0.000000 2.164720 2.666142 7.069456 13.090732 3.791964 4.585004 16.406210 23.775176 -15.288159 0.000000 0.000000 0.000000 2.164720 2.666142 7.069456 0.627026 -4.278473 -6.424858 0.000000 0.000000 0.000000 4.587692 39.001613 -16.318285 0.000011 -83.418193 0.000012 0.000000 0.000000 0.000000 2.164720 2.666142 7.069456 0.796478 1.040669 23.150836 0.000000 0.000000 0.000000 -41.751594 -10.010173 22.002071 0.000023 63.321215 -0.000008 0.000000 0.000000 0.000000 
